<svg viewBox="0 0 72 72" xmlns="http://www.w3.org/2000/svg"><path fill="#fcea2b" d="m36 27.737 5.248 16.151H58.23L44.491 53.87l5.248 16.151L36 60.039l-13.739 9.982 5.248-16.151-13.739-9.982h16.982z"/><path fill="#ea5a47" d="M56 8.979V2.021H16v6.958l20 14.758z"/><g fill="none" stroke="#000" stroke-linecap="round" stroke-linejoin="round" stroke-miterlimit="10" stroke-width="2"><path d="m36 27.737 5.248 16.151H58.23L44.491 53.87l5.248 16.151L36 60.039l-13.739 9.982 5.248-16.151-13.739-9.982h16.982zM36 19.064V2.021M56 8.979V2.021H16v6.958l20 14.758z"/><path d="m36 27.737 5.248 16.151H58.23L44.491 53.87l5.248 16.151L36 60.039l-13.739 9.982 5.248-16.151-13.739-9.982h16.982zM36 19.064V2.021M56 8.979V2.021H16v6.958l20 14.758z"/></g></svg>